<svg t="1726805167043" class="icon" viewBox="0 0 1024 1024" version="1.1" xmlns="http://www.w3.org/2000/svg" p-id="9765" width="256" height="256"><path d="M742.4 921.6l-512 0c-14.1312 0-25.6-11.4688-25.6-25.6s11.4688-25.6 25.6-25.6l512 0c14.1312 0 25.6 11.4688 25.6 25.6s-11.4688 25.6-25.6 25.6z" fill="#2c2c2c" p-id="9766"></path><path d="M844.8 153.6c-14.1312 0-25.6 11.4688-25.6 25.6l0 768c0 14.1312-11.4688 25.6-25.6 25.6l-563.2 0c-42.3424 0-76.8-34.4576-76.8-76.8s34.4576-76.8 76.8-76.8l460.8 0c42.3424 0 76.8-34.4576 76.8-76.8l0-614.4c0-42.3424-34.4576-76.8-76.8-76.8l-512 0c-42.3424 0-76.8 34.4576-76.8 76.8l0 768c0 70.5536 57.4464 128 128 128l563.2 0c42.3424 0 76.8-34.4576 76.8-76.8l0-768c0-14.1312-11.4688-25.6-25.6-25.6zM179.2 102.4l512 0c14.1312 0 25.6 11.4688 25.6 25.6l0 614.4c0 14.1312-11.4688 25.6-25.6 25.6l-460.8 0c-28.7744 0-55.3984 9.5744-76.8 25.6512l0-665.6512c0-14.1312 11.4688-25.6 25.6-25.6z" fill="#2c2c2c" p-id="9767"></path></svg>