<svg t="1740298171535" class="icon" viewBox="0 0 1133 1024" version="1.1" xmlns="http://www.w3.org/2000/svg" p-id="34422" data-spm-anchor-id="a313x.search_index.0.i17.22303a813e7Pwx" width="256" height="256"><path d="M297.23009381 288.7967899a35.13383865 35.13383865 0 0 0 70.26767728 0 35.13383865 35.13383865 0 0 0-70.26767728 0c0 19.40214609 0 0 0 0zM458.43241183 297.06357597a35.13383865 35.13383865 0 0 0 70.26767728 0 35.13383865 35.13383865 0 0 0-70.26767728 0c0 19.40214609 0 0 0 0zM663.32469177 649.67504691c-1.6698903-1.50042155-4.0796583-1.12841634-5.55941287 0.56214096-1.48388813 1.6864246-1.11601563 4.12512588 0.55387466 5.62554744 0 0 2.7817732 2.43870215 7.41530621 6.57209434 0.73987771 0.74401042 1.66575759 0.93827974 2.59577104 0.93828059 1.11188291 0 2.21963225-0.37200522 2.9677754-1.31441938a3.95152357 3.95152357 0 0 0-0.37200522-5.62968016c-4.63766655-4.12512588-7.41530706-6.57209434-7.60130922-6.75396379z m21.87391423 20.26189139c-1.66575759-1.50042155-4.0755256-1.50042155-5.55941285 0.19013574-1.47975455 1.6864246-1.48388813 4.12925946 0.18600304 5.62554744 4.81953601 4.69140042 9.453069 9.19266596 13.71873033 13.69806334 0.73987771 0.74814399 1.85175977 1.31441851 2.78177321 1.31441938 0.92587987 0 2.03776279-0.37200522 2.78177322-1.12428276 1.48388813-1.50042155 1.66575759-4.12925946 0.18600304-5.62968103a1006.72087758 1006.72087758 0 0 0-14.09486999-14.07420211z m137.00130378 74.301868c-6.48942631 1.69055732-12.60684829 3.0049767-18.53826636 3.93912372-2.21963225 0.37613878-3.7076531 2.43870215-3.33564786 4.50539824 0.37200522 2.06669608 2.03776279 3.37698189 3.88952255 3.3769819h0.55800825c6.11742111-0.93827974 12.79285046-2.43870215 19.46414622-4.12925947a4.06725845 4.06725845 0 0 0 2.78177323-4.87740343c-0.55387468-2.06669608-2.7817732-3.37698189-4.81953603-2.81484096z m70.82155196-29.64469307a249.12784936 249.12784936 0 0 1-17.24451482 8.81652717 3.91018958 3.91018958 0 0 0-1.85175978 5.2576758c0.73987771 1.50042155 2.03776279 2.24856555 3.52165093 2.24856556 0.55387468 0 1.11188291-0.19013574 1.66575674-0.37613879a385.95141726 385.95141726 0 0 0 17.43051787-9.0107965c1.85175977-1.1201492 2.59163747-3.37284833 1.66575673-5.43541171a3.68698609 3.68698609 0 0 0-5.19154124-1.5045551v0.00413357z m-34.67089827 16.88904305a271.05136476 271.05136476 0 0 1-17.98439254 6.94409954 3.988724 3.988724 0 0 0-2.40976801 5.0634065c0.55387468 1.6864246 2.04189638 2.62470434 3.70765396 2.62470432 0.37200522 0 0.93001345 0 1.29788509-0.18600218a331.70476973 331.70476973 0 0 0 18.35226331-7.13010255c2.04189638-0.94241331 2.97190984-3.19097887 2.0418964-5.25354225-0.73987771-1.87656033-2.96777625-3.0049767-5.0014055-2.06669695h-0.00413271z m68.03564432-36.40279045c-5.55941285 3.56298494-11.11882658 6.94409953-16.49636999 10.126813-1.85589335 1.12841634-2.59577104 3.56711765-1.48388813 5.44367798 0.74401042 1.31441851 2.04189638 2.06669608 3.33978146 2.06669608 0.73987771 0 1.29788509-0.19013574 2.0377628-0.56214096 5.37341069-3.19097887 11.12296016-6.57209434 16.6865066-10.13507925a3.98459042 3.98459042 0 0 0 1.29788509-5.43954527c-1.11188291-1.87656033-3.52165093-2.81484008-5.37341069-1.50042158h-0.00413358z m-141.63483677 54.78812149h-0.92587989c-6.30342413 0-12.23484221-0.56214181-17.61238647-1.6905573-2.22376496-0.37200522-4.26152776 0.94241331-4.63766655 3.19097887-0.37200522 2.24856555 0.93001345 4.31526162 3.15377843 4.69140127 5.93141893 1.31441851 12.42084524 1.87656033 19.27814407 1.87656034h0.93001345a3.93912372 3.93912372 0 0 0 3.89365612-3.93912372 4.02179087 4.02179087 0 0 0-4.07965916-4.12925946zM1042.81148242 641.7885332l1.29788509-2.62470434h1.29788597c5.93141893 0 10.75508767-4.87740345 10.75508765-10.88322324S1051.34280511 617.40151593 1045.40725348 617.40151593c-5.93141893 0-10.74682136 4.87740345-10.74682138 10.88322325 0 2.62470434 0.92587987 5.24940866 2.59163745 7.13010258l-1.85589332 3.75312068a36.34078943 36.34078943 0 0 0-6.48942718-0.56214182c-7.41530706 0-14.09073553 2.43870215-19.65014927 6.57209433l-5.93141894-5.44367798c0.73987771-1.50042155 1.11188291-3.0049767 1.11188292-4.69140128 0-6.00168623-4.81953601-10.88322325-10.75508766-10.88322239-5.93141893 0-10.75095494 4.87740345-10.75095494 10.88322239s4.81953601 10.88322325 10.75095494 10.88322326c1.48802171 0 2.7817732-0.37200522 3.89365614-0.748144l5.74541588 5.43954528a26.93732072 26.93732072 0 0 0-3.33564787 4.69140041 30.98391217 30.98391217 0 0 0-4.45166437-1.31441852c-0.18600304 0-0.37200522 0-0.37200522-0.1901366a42.46647769 42.46647769 0 0 0-8.52718912-0.93827975c-16.68237302 0-30.58710639 15.57462366-32.43886702 25.14342841-1.11601563-0.37613878-2.22376496-0.19013574-3.33978146 0.56214095-2.7817732 1.87656033-5.55941285 3.75312069-8.15518389 5.62554745-1.85175977 1.12841634-2.409768 3.75312069-1.11188206 5.62968103a4.13339304 4.13339304 0 0 0 3.3356479 1.87656032c0.74401042 0 1.48802171-0.19013574 2.22376495-0.74814398a199.84954045 199.84954045 0 0 0 7.96918175-5.44367797c3.33978148 9.01079648 14.27673858 19.69974957 27.44159424 21.57630988h0.37200521c1.10774935 0.19013574 2.40563444 0.19013574 3.51751736 0.19013661a37.60560765 37.60560765 0 0 0 17.98439167-4.50539823c0.37200522-0.18600304 0.55800824-0.37200522 0.93001344-0.56214181 1.29788509-0.74401042 2.59577104-1.6864246 3.70765397-2.62470435 5.55941285 3.93912372 12.23484221 6.37782501 19.46827982 6.37782501 18.35226417 0 33.36474691-15.19435218 33.36474605-33.76981897 0.18600304-13.32192455-7.7831787-24.95742538-19.09627461-30.39697064h0.00413356z m-49.31137579-3.75312068a2.94710926 2.94710926 0 0 1-2.96777625-3.00084312c0-1.69055732 1.29788509-3.0049767 2.96777625-3.00497668 1.66575759 0 2.96777625 1.31441851 2.96777627 3.00497668a2.94710926 2.94710926 0 0 1-2.96777627 3.00084312z m51.7211438-12.56964784c1.66575759 0 2.96777625 1.31441851 2.96777626 3.00497667a2.94710926 2.94710926 0 0 1-2.96777626 3.00084313 2.94710926 2.94710926 0 0 1-2.96777626-3.00084313c0-1.69055732 1.29788509-3.0049767 2.96777626-3.00497667z m-83.23826363 54.78812148c0-2.06669608 3.3356479-7.6963771 8.52718911-12.19764178-0.37200522 1.12428277-0.55387468 2.43870215-0.73987685 3.75312067-1.11188291 6.94409953-0.55387468 15.38448793 2.40976801 22.70472626-6.30342413-4.50539825-10.19708027-10.88322325-10.19708027-14.26020515z m24.65568746 19.32361165h-1.48388726c-7.60130924-6.56796075-8.89919434-17.82318922-7.60131011-26.45371423 1.11601563-7.13010259 3.7076531-10.32108144 4.45166438-10.69308664 0.55387468-0.19013574 0.92587987-0.56214181 1.29788509-0.94241418 1.11601563-0.18600304 2.22376496-0.37200522 3.33978148-0.37200521h0.18186946c-2.409768 4.69140042-3.88952256 10.87908968-3.7076531 16.88490949 0.37200522 8.63052413 4.0796583 15.94662975 10.38308243 20.63803016a27.53252942 27.53252942 0 0 1-6.86143237 0.93828061z m15.94662974-4.68726773c-9.2712004-3.93912372-11.49496537-11.44949778-11.6809684-17.26104825-0.37200522-7.31610561 2.409768-13.32192455 4.45166437-15.38448793 0.55387468 0.18600304 0.92587987 0.37200522 1.47975457 0.3720052a33.50941505 33.50941505 0 0 0-1.47975457 9.7589405c0 8.25438535 2.96777625 15.94662975 7.96918087 21.95244868-0.18600304 0.19013574-0.37200522 0.37200522-0.74401041 0.5621418z m26.13544288 3.3769819c-14.09073553 0-25.39556516-11.63550083-25.39556604-25.70556935 0-14.0700694 11.4908318-25.70556935 25.39556604-25.70557023 13.90473337 0 25.39969873 11.63550083 25.39969788 25.70557023 0 14.0700694-11.30896232 25.70556935-25.39969788 25.70556935z" p-id="34423" fill="#00c951"></path><path d="M1008.17365101 669.06892585a6.20008912 6.20008912 0 1 0 12.40017825 0 6.20008912 6.20008912 0 1 0-12.40017825 0c0 3.42658218 0 0 0 0zM1037.10740053 669.06892585a6.20008912 6.20008912 0 1 0 12.40017826 0 6.20008912 6.20008912 0 1 0-12.40017826 0c0 3.42658218 0 0 0 0zM805.34806717 254.26229351c4.66246713-1.49628799 23.67607372 3.55471778 38.0313476 17.39331659 7.64677681 7.47730722 15.8474283 19.63361584 11.56109908 35.34050867a8.19238432 8.19238432 0 0 0 5.40647756 9.91187579c0.74401042 0.19013574 1.48802171 0.37200522 2.23203212 0.37200521 3.54231793 0 6.7126298-2.24029927 7.64677682-5.79501705 5.03033876-18.14146056-0.56214181-36.46479147-15.84742744-51.24166998-15.8474283-15.33488677-41.20165945-25.24676342-54.06477808-21.12990383-4.1044589 1.31028581-6.53076033 5.79501705-5.22047451 10.09787883 1.67402388 4.11685961 6.15048883 6.36129158 10.25081414 5.05100577z m5.77848362-42.26394121c5.03447234-0.93827974 36.72519451 0.93414703 60.029263 20.19575764 17.3395827 14.4007406 26.10237514 34.97263618 26.10237516 60.96754275 0 4.48473124 3.54231793 8.03944903 7.82864626 8.03944903s8.01878203-3.55471778 8.01878202-7.85344599c0.18600304-31.23191623-10.62695293-55.91653784-31.88085876-73.49585747-26.66038339-21.88218139-62.64156748-25.61876864-73.2685204-23.56033794-4.28632835 0.93414703-7.084635 5.04273949-6.15048796 9.34560039a8.1345169 8.1345169 0 0 0 9.32080068 6.357158zM249.22487027 688.68187382c-54.62691904-14.02460181-47.54228404-80.22915337-47.17027883-83.03159359 0.56214181-4.29872821-2.60403732-8.41558781-6.89863197-8.97772962-4.28632835-0.55800824-8.39078723 2.62057076-8.94879547 6.91929981-0.18600304 0.74814399-2.42216786 20.75789863 3.35631492 42.82608218 8.01878203 30.2977692 27.22252522 50.30339025 55.55279888 57.59882886 0.74814399 0.18600304 1.31028581 0.18600304 2.05429624 0.18600217 3.54231793 0 6.7126298-2.43043502 7.6467768-5.98515192 1.30615224-4.11272601-1.30615224-8.59745727-5.59248057-9.53573789z" p-id="34424" fill="#00c951"></path><path d="M692.37417616 788.20983913l0.9382806-9.34146771 71.90863344-31.38485152a11.4908318 11.4908318 0 0 0 2.99671038-2.24029927l159.54896116-189.61525973a7.853446 7.853446 0 0 0 0.37200523-9.7134729c-2.06256338-2.99257596-5.99341994-4.11272601-9.3621347-2.80657381l-51.68394335 20.55122859V454.55824089c0-2.42630145-1.12428277-4.6707334-2.99670954-6.16288869a8.00224858 8.00224858 0 0 0-6.74569752-1.49628797l-69.84607091 16.25250036-12.35884423-18.49279964c36.70452749-10.08961168 63.85678455-43.71476162 63.85678454-83.69707043 0-47.82335408-38.94896032-86.67724654-86.88804929-86.67724653s-86.88391572 38.85389246-86.88391571 86.67724653c0 5.79088348 0.55800824 11.58176695 1.68229015 17.18664739l-69.47406571 5.41474471V311.83218822C597.4384107 177.13318469 487.69683255 67.66027674 352.68782484 67.66027674 217.67054997 67.66027674 107.93723813 177.13318469 107.93723813 311.82805463v514.30152907C88.6466942 837.33934543 78.16027673 849.66925553 78.16027673 862.55717472 78.16027673 914.3072518 248.94379935 956.33972326 459.7964315 956.33972326c210.85676573 0 381.63615477-42.03660416 381.63615478-93.78254855-0.74401042-30.26470146-58.8016452-57.16482178-149.05841012-74.35146916v0.00413358z m22.65925953-36.24572157l13.85513221-15.87636159 0.56214182 1.11601565c1.68229101 2.24443198 3.55471778 4.29872821 5.42714456 6.16702227l-19.84855217 8.59745724z m148.49626829-169.81217515l31.27325024-12.52004669-138.01398526 164.02542524-13.66499647 5.97688566a39.40363357 39.40363357 0 0 1-7.30783846-7.46904007 4.35246293 4.35246293 0 0 0-2.24443199-1.49628886l129.95800194-148.51693528z m-12.73084945-117.50822342v104.98817673l-223.0254742 66.6964252-5.80741692-118.25636654 228.83289112-53.43236895v0.00413356z m-99.06502491-174.29690638c39.13909608 0 70.97448727 31.75685676 70.97448726 70.80501766 0 39.03989462-31.83539119 70.80088496-70.97035369 70.80088496-39.14322964 0-70.97448727-31.76099033-70.97448727-70.80501766 0-39.04402819 31.83539119-70.80501854 70.9703537-70.80501853z m-80.51849057 103.49602144c12.91685249 31.57085371 44.19010184 53.99037634 80.51849057 53.99037633 1.87242677 0 3.93085657 0 5.8074169-0.19013575l12.92098606 19.42694582-158.61481413 36.99386555a8.06011602 8.06011602 0 0 0-6.17942212 8.21718491l5.05513935 103.87216023-127.33743119-207.55418471 187.82136741-14.76034595h0.00413358z m-267.78598502 212.03478236c0-23.53967183-9.3621347-44.83491169-24.71768848-60.3392672L469.34456924 415.88621789l127.71356996 208.11632652-84.63948461-48.9476377c-3.37284833-1.86829319-7.48970793-1.1201492-10.11441139 1.67815744L379.27794008 720.76940264l-20.97283494-39.04402822c26.78025186-14.57020934 45.13251603-43.15262067 45.13251603-75.84775801z m-87.07405148 70.80501853c-39.13909608 0-70.9703537-31.76099033-70.97035455-70.80501853 0-39.04402819 31.8312576-70.80501854 70.97035455-70.80501767 39.1349625 0 70.9703537 31.76099033 70.97035371 70.80501767 0 39.04402819-31.83539119 70.80501854-70.97035371 70.80501853z m119.28558143 221.18611431c-24.34568325 3.178579-52.2460843 5.04273949-83.51933453 5.04273863-149.99669072 0-215.91190506-46.88920791-228.83289027-57.16482178V311.83632179c0-125.91554407 102.61974271-228.28728275 228.83289027-228.2872836s228.83289112 102.37173866 228.83289112 228.2872836v73.03704978l-111.79587437 8.59745728c-0.19013574 0-0.56214181 0.18600304-0.74814398 0.18600304h-0.56214183l-1.68229017 0.56214093a4.06725845 4.06725845 0 0 0-1.50042155 0.93414704l-1.49628885 1.49628799-96.81645851 138.245455a86.048971 86.048971 0 0 0-49.99338604-15.88049516c-47.94322254 0-86.88804929 38.85389246-86.8880493 86.67724655 0 47.82335408 38.94896032 86.68551369 86.88391658 86.68551282 9.54813774 0 18.54239992-1.49628799 27.15638976-4.2987282l24.53168632 45.58305567-41.94566989 48.94763685a7.35743876 7.35743876 0 0 0-1.68642374 6.72503053c0.56214181 2.43043502 2.06256338 4.48473124 4.30699537 5.60488042l111.79587436 54.73438678-4.86913716 48.19949373h-0.00413359z m-90.63703639-112.46135122l38.57695426-45.2110496 0.37200607-0.37200522 126.21314843-147.5869227 97.75060553 56.42081137-161.04524914 186.62681733-101.87159873-49.87765118h0.00413358z m326.58349667 53.99037722l-221.15304745 72.29303937L456.61371892 851.35154654l220.0328974-66.69229249-5.05927206 54.7385212z m-198.49378791-9.71347378l151.86498391-175.98333011 209.73248293-62.57956647-109.73744544 125.34926867-0.18600215-0.18600216c-3.74485353-4.85673646-7.86584672-10.08547812-12.54898085-15.3183542-1.49628799-1.68229101-3.926723-1.86829319-5.61728031-0.37200522-1.68229101 1.49215442-1.87242677 3.91845671-0.37200521 5.60074773a331.82877176 331.82877176 0 0 1 12.1728412 14.94634814c0.37200522 0.56214181 0.93414703 0.93827974 1.496288 1.12014919l-38.76295732 44.27690344-208.04605835 63.14170829z" p-id="34425" fill="#00c951"></path></svg>