<svg t="1728965770532" class="icon" viewBox="0 0 1024 1024" version="1.1" xmlns="http://www.w3.org/2000/svg" p-id="9558" width="256" height="256"><path d="M830.8 128 257.2 128C186 128 128 185.9 128 257.2l0 637.6c0 71.2 58 129.2 129.2 129.2l573.6 0c71.2 0 129.2-58 129.2-129.2L960 257.2C960 185.9 902 128 830.8 128zM896 894.8c0 35.9-29.2 65.2-65.2 65.2L257.2 960c-35.9 0-65.2-29.2-65.2-65.2L192 257.2c0-35.9 29.2-65.2 65.2-65.2l573.6 0c35.9 0 65.2 29.2 65.2 65.2L896 894.8z" p-id="9559" fill="#272636"></path><path d="M800 320 288 320c-17.7 0-32 14.3-32 32s14.3 32 32 32l512 0c17.7 0 32-14.3 32-32S817.7 320 800 320z" p-id="9560" fill="#272636"></path><path d="M800 512 288 512c-17.7 0-32 14.3-32 32s14.3 32 32 32l512 0c17.7 0 32-14.3 32-32S817.7 512 800 512z" p-id="9561" fill="#272636"></path><path d="M800 704 288 704c-17.7 0-32 14.3-32 32s14.3 32 32 32l512 0c17.7 0 32-14.3 32-32S817.7 704 800 704z" p-id="9562" fill="#272636"></path><path d="M777.8 64c17.7 0 32-14.3 32-32s-14.3-32-32-32L181 0c-99.8 0-181 81.2-181 181l0 699.4c0 17.7 14.3 32 32 32 17.7 0 32-14.3 32-32l0-699.4c0-64.5 52.5-117 117-117L777.8 64z" p-id="9563" fill="#272636"></path></svg>